<svg width="20" height="21" viewBox="0 0 20 21" fill="none" xmlns="http://www.w3.org/2000/svg">
<path d="M7.15026 6.44051C7.15026 3.67322 4.55403 1.90215 4.44334 1.83171C4.27693 1.71923 4.08067 1.65912 3.87982 1.65912C3.67896 1.65912 3.4827 1.71923 3.31629 1.83171C3.2056 1.91221 0.609375 3.67322 0.609375 6.44051C0.609375 7.30789 0.953938 8.13974 1.56726 8.75306C2.18059 9.36639 3.01244 9.71095 3.87982 9.71095C4.74719 9.71095 5.57904 9.36639 6.19237 8.75306C6.80569 8.13974 7.15026 7.30789 7.15026 6.44051ZM3.87982 7.69837C3.54621 7.69837 3.22627 7.56585 2.99037 7.32996C2.75448 7.09406 2.62195 6.77412 2.62195 6.44051C2.70476 5.48643 3.15594 4.60212 3.87982 3.9751C4.60801 4.59872 5.06015 5.48492 5.13768 6.44051C5.13768 6.77412 5.00515 7.09406 4.76926 7.32996C4.53336 7.56585 4.21342 7.69837 3.87982 7.69837ZM9.97793 8.87573C9.81152 8.76325 9.61526 8.70315 9.41441 8.70315C9.21355 8.70315 9.01729 8.76325 8.85088 8.87573C8.67982 8.99649 4.63453 11.794 4.63453 16.0003C4.63453 17.268 5.13812 18.4837 6.03453 19.3801C6.93093 20.2765 8.14671 20.7801 9.41441 20.7801C10.6821 20.7801 11.8979 20.2765 12.7943 19.3801C13.6907 18.4837 14.1943 17.268 14.1943 16.0003C14.1943 11.7235 10.1691 8.98643 9.97793 8.87573ZM9.41441 18.7676C9.051 18.7676 8.69115 18.696 8.35541 18.5569C8.01966 18.4178 7.7146 18.214 7.45763 17.957C7.20067 17.7001 6.99683 17.395 6.85776 17.0593C6.71869 16.7235 6.64711 16.3637 6.64711 16.0003C6.64711 13.6757 8.4685 11.804 9.42447 10.9688C10.3704 11.7638 12.1817 13.6154 12.1817 16.0003C12.1817 16.3637 12.1101 16.7235 11.9711 17.0593C11.832 17.395 11.6281 17.7001 11.3712 17.957C11.1142 18.214 10.8091 18.4178 10.4734 18.5569C10.1377 18.696 9.77781 18.7676 9.41441 18.7676ZM16.2672 0.825418C16.1008 0.712939 15.9046 0.652832 15.7037 0.652832C15.5029 0.652832 15.3066 0.712939 15.1402 0.825418C14.9993 0.926047 11.6786 3.22039 11.6786 6.69208C11.6786 7.75962 12.1026 8.78344 12.8575 9.5383C13.6124 10.2932 14.6362 10.7172 15.7037 10.7172C16.7713 10.7172 17.7951 10.2932 18.5499 9.5383C19.3048 8.78344 19.7289 7.75962 19.7289 6.69208C19.7289 3.18014 16.4081 0.915984 16.2672 0.825418ZM15.7037 8.70466C15.1699 8.70466 14.658 8.49262 14.2806 8.11519C13.9032 7.73776 13.6911 7.22585 13.6911 6.69208C13.7601 5.96546 13.9737 5.25997 14.3193 4.6171C14.6649 3.97423 15.1356 3.40697 15.7037 2.94869C16.2739 3.40502 16.7461 3.9718 17.0919 4.61505C17.4378 5.2583 17.6501 5.96477 17.7163 6.69208C17.7163 7.22585 17.5043 7.73776 17.1268 8.11519C16.7494 8.49262 16.2375 8.70466 15.7037 8.70466Z" fill="black"/>
</svg>
